PathFileType	4	(x/y/z)	S08_M20_T04
DataRate	CameraRate	NumFrames	NumMarkers	Units	OrigDataRate	OrigDataStartFrame	OrigNumFrames
240	240	6	51	mm	240	406	463
Frame#	Time	Sternum			R.Acromium			L.Acromium			Top.Head			R.ASIS			L.ASIS			R.PSIS			L.PSIS			R.Great.Tro			L.Great.Tro			R.Iliac.Crest			L.Iliac.Crest			V.Sacral			R.Thigh.Upper.Post			R.Thigh.Lower.Ant			R.Thigh.Lower.Post			R.Thigh.Upper.Ant			R.Knee.Lat			R.Knee.Med			R.Shank.Upper.Post			R.Shank.Lower.Ant			R.Shank.Lower.Post			R.Shank.Upper.Ant			R.Ankle.Lat			R.Ankle.Med			R.Heel.Upper			R.Heel.Med			R.Heel.Lat			R.Toe.Lat			R.Toe.Med			R.Toe.Tip			L.Thigh.Upper.Post			L.Thigh.Lower.Ant			L.Thigh.Lower.Post			L.Thigh.Upper.Ant			L.Knee.Lat			L.Knee.Med			L.Shank.Upper.Post			L.Shank.Lower.Ant			L.Shank.Lower.Post			L.Shank.Upper.Ant			L.Ankle.Lat			L.Ankle.Med			L.Heel.Upper			L.Heel.Med			L.Heel.Lat			L.Toe.Lat			L.Toe.Med			L.Toe.Tip			Cervical.Spine			Back			
		X1	Y1	Z1	X2	Y2	Z2	X3	Y3	Z3	X4	Y4	Z4	X5	Y5	Z5	X6	Y6	Z6	X7	Y7	Z7	X8	Y8	Z8	X9	Y9	Z9	X10	Y10	Z10	X11	Y11	Z11	X12	Y12	Z12	X13	Y13	Z13	X14	Y14	Z14	X15	Y15	Z15	X16	Y16	Z16	X17	Y17	Z17	X18	Y18	Z18	X19	Y19	Z19	X20	Y20	Z20	X21	Y21	Z21	X22	Y22	Z22	X23	Y23	Z23	X24	Y24	Z24	X25	Y25	Z25	X26	Y26	Z26	X27	Y27	Z27	X28	Y28	Z28	X29	Y29	Z29	X30	Y30	Z30	X31	Y31	Z31	X32	Y32	Z32	X33	Y33	Z33	X34	Y34	Z34	X35	Y35	Z35	X36	Y36	Z36	X37	Y37	Z37	X38	Y38	Z38	X39	Y39	Z39	X40	Y40	Z40	X41	Y41	Z41	X42	Y42	Z42	X43	Y43	Z43	X44	Y44	Z44	X45	Y45	Z45	X46	Y46	Z46	X47	Y47	Z47	X48	Y48	Z48	X49	Y49	Z49	X50	Y50	Z50	X51	Y51	Z51	

406	1.6875	724.4	1224.7	319.57	622.21	1459.4	500.62	590.17	1491.3	168.41	628.04	1778.9	352.06	718.75	1014.5	431.56	704.92	1015.3	199.07	513.54	1033.7	373.19	511.65	1039.9	279.93	667.33	905.4	508.75	606.89	909.53	140.92	624.92	1079.3	486.35	605.33	1096	176.13	496.31	996.25	324.69	733.7	711.3	498.56	844.43	655.49	463.39	777.46	633.6	479.36	805.19	740.74	482.51	854.46	556.82	460.6	824.62	544.89	335.49	816.89	369.76	478.47	884.41	313.86	458.1	825.12	293.09	474.73	876.64	391.04	463.17	844.59	122.35	448.85	871.55	140.76	368.51	804.33	75.191	400.09	822.38	51.706	373.06	814.94	51.981	434.68	NaN	NaN	NaN	1002.1	93.134	363.03	1059.6	125.7	409.18	566.85	708.15	158.17	636.89	608.33	191.01	569.45	617.96	181.53	635.49	694.25	164.23	569.05	513.52	207.05	564.98	518.1	332.04	476.26	343.59	208.78	525.06	247.75	240.61	458.94	273.51	227.75	536.43	321.3	221.39	447.88	101.81	252.74	467.15	104.26	340.13	390.9	77.065	303.13	403.87	41.514	332.18	397.11	50.536	268.7	572.5	40.566	231.47	593.58	35.792	347.26	657.21	52.801	297.76	539.12	1518.5	332.79	491.32	1234.7	341.38
407	1.6917	729.54	1223.9	319.62	627.34	1458.7	500.7	595.52	1490.6	168.54	633.38	1778.2	352.18	724.02	1013.8	431.63	709.87	1014.5	199.12	518.71	1033	373.35	516.72	1039.3	280.09	672.45	904.69	508.9	611.51	908.93	140.96	630.18	1078.5	486.43	610.3	1095.3	176.17	501.42	995.58	324.87	738.56	710.39	498.6	849.32	654.7	463.31	782.37	632.75	479.28	810.03	739.91	482.57	859.81	556.33	460.37	829.85	544.2	335.33	826.16	368.49	478.05	894.87	314.13	457.38	836.1	292.01	474.09	885.36	391.11	462.63	859.52	121.71	447.84	885.82	140.96	367.4	820.32	73.684	399.06	838.82	50.703	371.92	831.53	50.669	433.57	NaN	NaN	NaN	1017.4	96.481	361.44	1074.3	130.29	407.52	570.3	707.98	158.03	639.73	607.75	190.95	572.36	617.75	181.41	638.84	693.67	164.15	571.19	513.25	206.96	567.29	517.84	331.99	477.51	343.74	208.8	525.9	247.68	240.57	459.89	273.75	227.78	537.6	321.16	221.34	448.1	102	252.83	467.4	104.42	340.2	391	77.18	303.23	403.91	41.595	332.25	397.17	50.69	268.78	572.53	40.525	231.46	593.64	35.711	347.27	657.31	52.557	297.71	544.39	1517.8	332.84	496.47	1234	341.38
408	1.6958	734.71	1223.1	319.67	632.48	1457.9	500.8	600.88	1489.9	168.66	638.72	1777.4	352.32	729.31	1013.1	431.69	714.83	1013.6	199.17	523.91	1032.3	373.51	521.8	1038.6	280.26	677.61	903.98	509.03	616.15	908.31	141	635.46	1077.8	486.51	615.3	1094.6	176.21	506.55	994.89	325.04	743.43	709.45	498.66	854.2	653.85	463.25	787.26	631.85	479.23	814.88	739.03	482.65	865.11	555.77	460.14	835.01	543.45	335.17	835.34	367.24	477.63	905.19	314.43	456.64	846.97	290.97	473.44	893.97	391.17	462.1	874.3	121.21	446.79	899.92	141.28	366.27	836.16	72.36	398	855.09	49.895	370.72	847.96	49.546	432.42	NaN	NaN	NaN	1032.5	99.941	359.84	1088.8	134.94	405.87	573.77	707.79	157.88	642.6	607.17	190.89	575.31	617.53	181.3	642.21	693.08	164.07	573.37	512.98	206.88	569.65	517.58	331.95	478.78	343.9	208.84	526.75	247.61	240.54	460.85	274	227.83	538.79	321.04	221.3	448.34	102.2	252.93	467.66	104.58	340.29	391.1	77.306	303.36	403.97	41.685	332.32	397.25	50.859	268.87	572.57	40.483	231.45	593.71	35.629	347.28	657.42	52.304	297.66	549.67	1517	332.91	501.65	1233.3	341.39
409	1.7	739.9	1222.3	319.72	637.64	1457.1	500.91	606.25	1489.2	168.8	644.07	1776.6	352.46	734.63	1012.4	431.76	719.82	1012.8	199.21	529.14	1031.6	373.67	526.91	1037.9	280.42	682.81	903.25	509.16	620.81	907.68	141.04	640.75	1077.1	486.58	620.33	1093.8	176.24	511.7	994.19	325.22	748.32	708.49	498.75	859.06	652.95	463.19	792.14	630.92	479.19	819.75	738.1	482.74	870.35	555.14	459.93	840.09	542.64	335.03	844.41	366.01	477.2	915.36	314.76	455.9	857.71	289.99	472.77	902.45	391.23	461.58	888.9	120.85	445.72	913.84	141.73	365.11	851.84	71.215	396.89	871.19	49.277	369.48	864.22	48.606	431.21	NaN	NaN	NaN	1047.4	103.5	358.21	1102.9	139.65	404.22	577.26	707.59	157.75	645.49	606.56	190.82	578.28	617.29	181.21	645.61	692.47	164	575.57	512.7	206.81	572.05	517.32	331.92	480.09	344.08	208.89	527.63	247.55	240.51	461.85	274.26	227.89	540.01	320.92	221.26	448.57	102.42	253.04	467.94	104.75	340.38	391.21	77.446	303.5	404.03	41.784	332.41	397.32	51.045	268.97	572.6	40.439	231.45	593.78	35.548	347.28	657.54	52.042	297.6	554.96	1516.3	332.98	506.85	1232.6	341.39
410	1.7042	745.12	1221.5	319.78	642.81	1456.2	501.02	611.63	1488.5	168.94	649.43	1775.8	352.62	739.98	1011.7	431.83	724.83	1011.9	199.26	534.39	1030.9	373.84	532.04	1037.2	280.58	688.04	902.52	509.28	625.48	907.02	141.08	646.06	1076.3	486.64	625.39	1093.1	176.27	516.89	993.47	325.4	753.22	707.5	498.87	863.92	652	463.14	797.02	629.96	479.18	824.64	737.14	482.83	875.53	554.45	459.73	845.1	541.77	334.89	853.37	364.8	476.77	925.37	315.1	455.16	868.3	289.05	472.09	910.8	391.27	461.06	903.32	120.62	444.62	927.58	142.3	363.93	867.34	70.242	395.74	887.08	48.841	368.18	880.28	47.84	429.95	NaN	NaN	NaN	1061.9	107.15	356.59	1116.8	144.4	402.6	580.78	707.37	157.63	648.42	605.95	190.77	581.28	617.05	181.12	649.03	691.85	163.92	577.82	512.42	206.75	574.5	517.05	331.9	481.42	344.26	208.95	528.52	247.5	240.49	462.86	274.54	227.96	541.25	320.8	221.24	448.82	102.66	253.16	468.23	104.94	340.49	391.33	77.603	303.66	404.09	41.897	332.52	397.4	51.249	269.09	572.64	40.394	231.45	593.87	35.467	347.28	657.65	51.77	297.55	560.26	1515.5	333.07	512.08	1231.9	341.41
411	1.7083	750.37	1220.7	319.85	647.99	1455.4	501.15	617.03	1487.7	169.09	654.79	1775	352.78	745.35	1010.9	431.89	729.86	1011	199.3	539.67	1030.1	374	537.2	1036.4	280.75	693.32	901.78	509.4	630.17	906.36	141.13	651.39	1075.5	486.71	630.47	1092.3	176.3	522.1	992.73	325.59	758.15	706.5	499.01	868.78	651.01	463.09	801.89	628.97	479.19	829.57	736.13	482.94	880.67	553.71	459.55	850.06	540.84	334.77	862.21	363.61	476.33	935.23	315.46	454.42	878.75	288.17	471.39	919.02	391.3	460.55	917.54	120.5	443.49	941.11	142.97	362.74	882.63	69.435	394.54	902.76	48.578	366.84	896.12	47.242	428.64	NaN	NaN	NaN	1076.2	110.87	354.98	1130.4	149.16	401.02	584.32	707.14	157.52	651.38	605.33	190.71	584.31	616.8	181.06	652.47	691.22	163.85	580.1	512.14	206.71	577	516.78	331.9	482.79	344.46	209.02	529.43	247.46	240.48	463.9	274.83	228.05	542.52	320.69	221.23	449.08	102.92	253.29	468.54	105.15	340.59	391.45	77.778	303.84	404.16	42.024	332.64	397.48	51.475	269.23	572.68	40.348	231.45	593.95	35.387	347.27	657.78	51.489	297.49	565.57	1514.7	333.16	517.33	1231.1	341.42
